<?xml version="1.0" encoding="UTF-8"?>
<svg width="1073px" height="1073px" viewBox="0 0 1073 1073" version="1.1" xmlns="http://www.w3.org/2000/svg" xmlns:xlink="http://www.w3.org/1999/xlink">
    <title>Group</title>
    <g id="Page-1" stroke="none" stroke-width="1" fill="none" fill-rule="evenodd">
        <g id="Group" transform="translate(0.513060, 0.513060)">
            <polygon id="Path" fill="#000000" fill-rule="nonzero" transform="translate(535.986940, 535.986940) rotate(45.000000) translate(-535.986940, -535.986940) " points="914.98694 156.98694 156.98694 156.98694 156.98694 914.98694 914.98694 914.98694"></polygon>
            <polygon id="Path" fill="#D8D8D8" fill-rule="nonzero" transform="translate(535.986233, 535.986233) rotate(45.000000) translate(-535.986233, -535.986233) " points="871.986233 199.986233 871.986233 871.986233 199.986233 871.986233 199.986233 199.986233"></polygon>
            <path d="M161.78494,540.07794 C159.47194,539.03894 160.19394,535.59794 162.72894,535.52894 L338.79894,530.71994 L465.60594,497.64594 L535.48694,504.00494 L605.36694,497.64594 L732.18694,530.71994 L908.24694,535.52894 C910.77694,535.59794 911.49694,539.03894 909.18694,540.07794 C908.51894,540.37798 907.813864,540.698797 907.071749,541.039439 L904.734321,542.119893 L904.734321,542.119893 L902.174875,543.313594 L902.174875,543.313594 L897.919905,545.304003 L897.919905,545.304003 L894.806376,546.755857 C847.518253,568.747691 728.840285,620.836223 541.8868,622.003976 L535.48694,622.02394 C353.41014,622.02394 234.996428,573.6569 183.056653,549.933685 L179.500759,548.300987 C178.926523,548.03601 178.361497,547.774681 177.805685,547.51712 L173.052289,545.304003 L173.052289,545.304003 L166.237689,542.119893 L166.237689,542.119893 L163.900194,541.039439 C163.158057,540.698797 162.45296,540.37798 161.78494,540.07794 Z" id="Path" fill="#000000"></path>
            <path d="M723.15694,431.90494 C697.60694,440.44994 620.81694,451.37994 535.48694,451.37994 C450.16694,451.37994 371.30494,442.63594 347.82994,431.90494 C347.86694,430.63094 347.86694,403.15694 347.86694,401.84594 C347.86694,318.39494 360.38294,220.62994 419.43894,220.62994 C479.28294,220.62994 461.18394,254.01694 535.48694,254.01694 C609.75694,254.01694 591.69694,220.62994 651.50694,220.62994 C710.59694,220.62994 723.11694,318.39494 723.11694,401.84594 C723.11694,403.15694 723.11694,430.63094 723.15694,431.90494" id="Fill-18" fill="#000000"></path>
            <path d="M732.18694,530.71994 C732.18694,530.71994 665.06694,535.80994 535.48694,535.80994 C405.91194,535.80994 338.79894,530.71994 338.79894,530.71994 C338.79894,530.71994 347.56694,496.59394 347.82994,431.90494 C373.38594,434.23994 450.16694,440.55594 535.48694,440.55594 C620.81694,440.55594 697.59694,434.23994 723.15694,431.90494 C723.41694,496.59394 732.18694,530.71994 732.18694,530.71994" id="Fill-19" fill="#D8D8D8"></path>
            <path d="M473.56694,789.48694 C476.30294,789.48694 477.02294,788.55094 477.02294,786.03094 L477.02294,747.22294 C480.088747,747.22294 487.874636,747.425229 491.244964,747.43828 L491.8533,747.438567 C493.750287,747.431103 495.38294,747.274369 495.38294,743.98294 L495.38294,743.40694 C495.38294,741.10294 494.80694,739.95094 491.85494,739.95094 L451.82294,739.95094 C449.23094,739.95094 448.29494,740.74294 448.29494,743.40694 L448.29494,743.98294 C448.29494,747.274369 449.927593,747.431103 451.824581,747.438567 L452.454609,747.438236 C453.810572,747.433132 456.191324,747.400924 458.624348,747.362908 L459.620126,747.347086 C463.26392,747.28828 466.72694,747.22294 466.72694,747.22294 L466.72694,786.03094 C466.72694,788.62294 467.51894,789.48694 470.18294,789.48694 L473.56694,789.48694 Z M526.77494,791.07094 C546.14294,791.07094 550.96694,778.39894 550.96694,764.93494 C550.96694,750.82294 546.07094,737.86294 526.70294,737.86294 C512.23094,737.86294 502.58294,745.35094 502.58294,764.71894 C502.58294,778.61494 507.40694,791.07094 526.77494,791.07094 Z M526.84694,785.23894 C523.17494,785.23894 520.15094,784.01494 518.06294,782.21494 C516.76694,781.06294 515.75894,779.62294 515.03894,777.96694 C513.81494,775.44694 513.23894,772.56694 513.02294,769.75894 C512.95094,768.89494 512.87894,768.10294 512.87894,767.23894 C512.82134,766.43254 512.80982,765.58006 512.807516,764.718364 L512.80694,761.19094 L512.80694,761.19094 C512.95094,757.87894 513.23894,754.42294 514.46294,751.32694 C516.47894,746.35894 520.58294,743.55094 526.77494,743.55094 C530.51894,743.55094 533.68694,744.70294 535.77494,746.57494 C537.21494,747.79894 538.22294,749.45494 538.94294,751.18294 C540.16694,753.99094 540.52694,757.01494 540.67094,759.96694 C540.67094,760.83094 540.74294,761.76694 540.74294,762.63094 L540.74294,763.49494 C540.74294,769.18294 540.52694,777.46294 535.84694,781.85494 C535.27094,782.50294 532.24694,785.23894 526.84694,785.23894 Z M570.83894,786.10294 L570.83894,748.51894 L570.912909,748.815898 C571.495815,751.094815 572.45894,753.48394 574.94294,760.03894 L582.43094,778.47094 C585.45494,785.95894 585.52694,787.90294 589.84694,787.90294 L590.92694,787.90294 C593.23094,787.90294 594.74294,787.75894 596.32694,784.01494 C596.47094,783.51094 609.43094,752.19094 610.29494,748.51894 C610.36694,749.23894 610.36694,749.88694 610.36694,750.53494 L610.36694,785.74294 L610.366735,785.82473 L610.366735,785.82473 L610.366171,786.100323 C610.371737,787.317389 610.546062,789.48694 613.53494,789.48694 L615.91094,789.48694 C618.64694,789.48694 619.22294,788.19094 619.22294,785.95894 L619.22294,742.90294 C619.22294,741.53494 619.00694,739.51894 615.83894,739.51894 L609.64694,739.51894 C606.19094,739.51894 605.47094,741.10294 604.53494,743.40694 C604.34774,743.85622 600.772969,752.501865 597.262834,761.173987 L596.858302,762.174269 C593.762099,769.836873 590.82038,777.2743 590.42294,778.83094 C589.71086,776.66374 586.935296,769.637368 583.956712,762.257009 L583.539965,761.225347 C583.400735,760.880996 583.261253,760.536333 583.121706,760.191811 L582.703059,759.159119 C579.146084,750.392539 575.6687,742.0123 575.37494,741.53494 C574.196273,739.66294 572.483483,739.526841 571.200959,739.51894 L565.43894,739.51894 C562.70294,739.51894 561.98294,740.81494 561.98294,742.83094 L561.98294,785.95894 C561.98294,787.39894 562.05494,789.48694 565.29494,789.48694 L567.31094,789.48694 C569.18294,789.48694 570.83894,789.12694 570.83894,786.10294 Z" id="TOM" fill="#000000" fill-rule="nonzero"></path>
        </g>
    </g>
</svg>